<svg xmlns="http://www.w3.org/2000/svg" xmlns:xlink="http://www.w3.org/1999/xlink" width="538px" height="104px">
	<path fill-rule="evenodd" d="M97.765,103.351 L77.541,103.351 C74.779,103.351 72.541,101.112 72.541,98.351 L72.541,78.126 C72.541,75.365 74.779,73.126 77.541,73.126 L97.765,73.126 C100.527,73.126 102.765,75.365 102.765,78.126 L102.765,98.351 C102.765,101.112 100.527,103.351 97.765,103.351 ZM97.765,67.82 L77.541,67.82 C74.779,67.82 72.541,64.843 72.541,62.82 L72.541,41.857 C72.541,39.96 74.779,36.857 77.541,36.857 L97.765,36.857 C100.527,36.857 102.765,39.96 102.765,41.857 L102.765,62.82 C102.765,64.843 100.527,67.82 97.765,67.82 ZM97.765,30.812 L77.541,30.812 C74.779,30.812 72.541,28.574 72.541,25.812 L72.541,5.588 C72.541,2.827 74.779,0.588 77.541,0.588 L97.765,0.588 C100.527,0.588 102.765,2.827 102.765,5.588 L102.765,25.812 C102.765,28.574 100.527,30.812 97.765,30.812 ZM61.496,103.351 L41.272,103.351 C38.510,103.351 36.272,101.112 36.272,98.351 L36.272,78.126 C36.272,75.365 38.510,73.126 41.272,73.126 L61.496,73.126 C64.257,73.126 66.496,75.365 66.496,78.126 L66.496,98.351 C66.496,101.112 64.257,103.351 61.496,103.351 ZM61.496,30.812 L41.272,30.812 C38.510,30.812 36.272,28.574 36.272,25.812 L36.272,5.588 C36.272,2.827 38.510,0.588 41.272,0.588 L61.496,0.588 C64.257,0.588 66.496,2.827 66.496,5.588 L66.496,25.812 C66.496,28.574 64.257,30.812 61.496,30.812 ZM25.227,103.351 L5.2,103.351 C2.241,103.351 0.2,101.112 0.2,98.351 L0.2,78.126 C0.2,75.365 2.241,73.126 5.2,73.126 L25.227,73.126 C27.988,73.126 30.227,75.365 30.227,78.126 L30.227,98.351 C30.227,101.112 27.988,103.351 25.227,103.351 ZM25.227,67.82 L5.2,67.82 C2.241,67.82 0.2,64.843 0.2,62.82 L0.2,41.857 C0.2,39.96 2.241,36.857 5.2,36.857 L25.227,36.857 C27.988,36.857 30.227,39.96 30.227,41.857 L30.227,62.82 C30.227,64.843 27.988,67.82 25.227,67.82 ZM25.231,30.812 L5.2,30.812 C2.241,30.812 0.2,28.574 0.2,25.813 C0.2,11.882 11.296,0.588 25.227,0.588 L25.231,0.588 C27.990,0.588 30.227,2.825 30.227,5.584 L30.227,25.816 C30.227,28.576 27.990,30.812 25.231,30.812 Z" />
	<path fill-rule="evenodd" d="M206.573,103.351 L186.348,103.351 C183.587,103.351 181.349,101.112 181.349,98.351 L181.349,78.126 C181.349,75.365 183.587,73.126 186.348,73.126 L206.573,73.126 C209.334,73.126 211.573,75.365 211.573,78.126 L211.573,98.351 C211.573,101.112 209.334,103.351 206.573,103.351 ZM206.573,67.82 L186.348,67.82 C183.587,67.82 181.349,64.843 181.349,62.82 L181.349,41.857 C181.349,39.96 183.587,36.857 186.348,36.857 L206.573,36.857 C209.334,36.857 211.573,39.96 211.573,41.857 L211.573,62.82 C211.573,64.843 209.334,67.82 206.573,67.82 ZM206.573,30.812 L186.348,30.812 C183.587,30.812 181.349,28.574 181.349,25.812 L181.349,5.588 C181.349,2.827 183.587,0.588 186.348,0.588 L206.573,0.588 C209.334,0.588 211.573,2.827 211.573,5.588 L211.573,25.812 C211.573,28.574 209.334,30.812 206.573,30.812 ZM170.304,67.82 L150.79,67.82 C147.318,67.82 145.79,64.843 145.79,62.82 L145.79,41.857 C145.79,39.96 147.318,36.857 150.79,36.857 L170.304,36.857 C173.65,36.857 175.304,39.96 175.304,41.857 L175.304,62.82 C175.304,64.843 173.65,67.82 170.304,67.82 ZM170.304,30.812 L150.79,30.812 C147.318,30.812 145.79,28.574 145.79,25.812 L145.79,5.588 C145.79,2.827 147.318,0.588 150.79,0.588 L170.304,0.588 C173.65,0.588 175.304,2.827 175.304,5.588 L175.304,25.812 C175.304,28.574 173.65,30.812 170.304,30.812 ZM134.34,103.351 L113.810,103.351 C111.49,103.351 108.810,101.112 108.810,98.351 L108.810,78.126 C108.810,75.365 111.49,73.126 113.810,73.126 L134.34,73.126 C136.796,73.126 139.34,75.365 139.34,78.126 L139.34,98.351 C139.34,101.112 136.796,103.351 134.34,103.351 ZM134.34,67.82 L113.810,67.82 C111.49,67.82 108.810,64.843 108.810,62.82 L108.810,41.857 C108.810,39.96 111.49,36.857 113.810,36.857 L134.34,36.857 C136.796,36.857 139.34,39.96 139.34,41.857 L139.34,62.82 C139.34,64.843 136.796,67.82 134.34,67.82 ZM134.34,30.812 L113.810,30.812 C111.49,30.812 108.810,28.574 108.810,25.812 L108.810,25.808 C108.810,11.879 120.101,0.588 134.30,0.588 L134.34,0.588 C136.796,0.588 139.34,2.827 139.34,5.588 L139.34,25.812 C139.34,28.574 136.796,30.812 134.34,30.812 Z" />
	<path fill-rule="evenodd" d="M351.650,103.351 L331.425,103.351 C328.664,103.351 326.425,101.112 326.425,98.351 L326.425,78.126 C326.425,75.365 328.664,73.126 331.425,73.126 L351.650,73.126 C354.411,73.126 356.650,75.365 356.650,78.126 L356.650,98.351 C356.650,101.112 354.411,103.351 351.650,103.351 ZM351.650,67.82 L331.425,67.82 C328.664,67.82 326.425,64.843 326.425,62.82 L326.425,41.857 C326.425,39.96 328.664,36.857 331.425,36.857 L351.650,36.857 C354.411,36.857 356.650,39.96 356.650,41.857 L356.650,62.82 C356.650,64.843 354.411,67.82 351.650,67.82 ZM351.650,30.812 L331.425,30.812 C328.664,30.812 326.425,28.574 326.425,25.812 L326.425,5.588 C326.425,2.827 328.664,0.588 331.425,0.588 L351.650,0.588 C354.411,0.588 356.650,2.827 356.650,5.588 L356.650,25.812 C356.650,28.574 354.411,30.812 351.650,30.812 ZM315.380,67.82 L295.156,67.82 C292.395,67.82 290.156,64.843 290.156,62.82 L290.156,41.857 C290.156,39.96 292.395,36.857 295.156,36.857 L315.380,36.857 C318.142,36.857 320.381,39.96 320.381,41.857 L320.381,62.82 C320.381,64.843 318.142,67.82 315.380,67.82 ZM315.380,30.812 L295.156,30.812 C292.395,30.812 290.156,28.574 290.156,25.812 L290.156,5.588 C290.156,2.827 292.395,0.588 295.156,0.588 L315.380,0.588 C318.142,0.588 320.381,2.827 320.381,5.588 L320.381,25.812 C320.381,28.574 318.142,30.812 315.380,30.812 ZM279.111,103.351 L258.887,103.351 C256.125,103.351 253.887,101.112 253.887,98.351 L253.887,78.126 C253.887,75.365 256.125,73.126 258.887,73.126 L279.111,73.126 C281.873,73.126 284.111,75.365 284.111,78.126 L284.111,98.351 C284.111,101.112 281.873,103.351 279.111,103.351 ZM279.111,67.82 L258.887,67.82 C256.125,67.82 253.887,64.843 253.887,62.82 L253.887,41.857 C253.887,39.96 256.125,36.857 258.887,36.857 L279.111,36.857 C281.873,36.857 284.111,39.96 284.111,41.857 L284.111,62.82 C284.111,64.843 281.873,67.82 279.111,67.82 ZM279.111,30.812 L258.887,30.812 C256.125,30.812 253.887,28.574 253.887,25.812 L253.887,25.808 C253.887,11.879 265.178,0.588 279.107,0.588 L279.111,0.588 C281.873,0.588 284.111,2.827 284.111,5.588 L284.111,25.812 C284.111,28.574 281.873,30.812 279.111,30.812 Z" />
	<path fill-rule="evenodd" d="M387.919,103.351 L367.695,103.351 C364.933,103.351 362.695,101.112 362.695,98.351 L362.695,78.126 C362.695,75.365 364.933,73.126 367.695,73.126 L387.919,73.126 C390.680,73.126 392.919,75.365 392.919,78.126 L392.919,98.351 C392.919,101.112 390.680,103.351 387.919,103.351 ZM387.919,67.82 L367.695,67.82 C364.933,67.82 362.695,64.843 362.695,62.82 L362.695,41.857 C362.695,39.96 364.933,36.857 367.695,36.857 L387.919,36.857 C390.680,36.857 392.919,39.96 392.919,41.857 L392.919,62.82 C392.919,64.843 390.680,67.82 387.919,67.82 ZM387.919,30.812 L367.695,30.812 C364.933,30.812 362.695,28.574 362.695,25.812 L362.695,25.808 C362.695,11.879 373.986,0.588 387.915,0.588 L387.919,0.588 C390.680,0.588 392.919,2.827 392.919,5.588 L392.919,25.812 C392.919,28.574 390.680,30.812 387.919,30.812 Z" />
	<path fill-rule="evenodd" d="M479.525,103.351 L471.502,103.351 L471.502,78.126 C471.502,75.365 473.741,73.126 476.502,73.126 L501.727,73.126 L501.727,81.149 C501.727,93.411 491.786,103.351 479.525,103.351 ZM496.727,67.82 L476.502,67.82 C473.741,67.82 471.502,64.843 471.502,62.82 L471.502,41.857 C471.502,39.96 473.741,36.857 476.502,36.857 L496.727,36.857 C499.488,36.857 501.727,39.96 501.727,41.857 L501.727,62.82 C501.727,64.843 499.488,67.82 496.727,67.82 ZM496.727,30.812 L476.502,30.812 C473.741,30.812 471.502,28.574 471.502,25.812 L471.502,5.588 C471.502,2.827 473.741,0.588 476.502,0.588 L496.727,0.588 C499.488,0.588 501.727,2.827 501.727,5.588 L501.727,25.812 C501.727,28.574 499.488,30.812 496.727,30.812 ZM460.457,103.351 L440.233,103.351 C437.472,103.351 435.233,101.112 435.233,98.351 L435.233,78.126 C435.233,75.365 437.472,73.126 440.233,73.126 L460.457,73.126 C463.219,73.126 465.457,75.365 465.457,78.126 L465.457,98.351 C465.457,101.112 463.219,103.351 460.457,103.351 ZM460.457,30.812 L440.233,30.812 C437.472,30.812 435.233,28.574 435.233,25.812 L435.233,5.588 C435.233,2.827 437.472,0.588 440.233,0.588 L460.457,0.588 C463.219,0.588 465.457,2.827 465.457,5.588 L465.457,25.812 C465.457,28.574 463.219,30.812 460.457,30.812 ZM424.188,103.351 L403.964,103.351 C401.202,103.351 398.964,101.112 398.964,98.351 L398.964,78.126 C398.964,75.365 401.202,73.126 403.964,73.126 L424.188,73.126 C426.950,73.126 429.188,75.365 429.188,78.126 L429.188,98.351 C429.188,101.112 426.950,103.351 424.188,103.351 ZM424.188,67.82 L403.964,67.82 C401.202,67.82 398.964,64.843 398.964,62.82 L398.964,41.857 C398.964,39.96 401.202,36.857 403.964,36.857 L424.188,36.857 C426.950,36.857 429.188,39.96 429.188,41.857 L429.188,62.82 C429.188,64.843 426.950,67.82 424.188,67.82 ZM424.188,30.812 L403.964,30.812 C401.202,30.812 398.964,28.574 398.964,25.812 L398.964,25.808 C398.964,11.879 410.255,0.588 424.184,0.588 L424.188,0.588 C426.950,0.588 429.188,2.827 429.188,5.588 L429.188,25.812 C429.188,28.574 426.950,30.812 424.188,30.812 Z" />
	<path fill-rule="evenodd" d="M532.996,103.351 L512.771,103.351 C510.10,103.351 507.771,101.112 507.771,98.351 L507.771,78.126 C507.771,75.365 510.10,73.126 512.771,73.126 L532.996,73.126 C535.757,73.126 537.996,75.365 537.996,78.126 L537.996,98.351 C537.996,101.112 535.757,103.351 532.996,103.351 ZM532.996,67.82 L512.771,67.82 C510.10,67.82 507.771,64.843 507.771,62.82 L507.771,41.857 C507.771,39.96 510.10,36.857 512.771,36.857 L532.996,36.857 C535.757,36.857 537.996,39.96 537.996,41.857 L537.996,62.82 C537.996,64.843 535.757,67.82 532.996,67.82 ZM532.996,30.812 L512.771,30.812 C510.10,30.812 507.771,28.574 507.771,25.812 L507.771,25.808 C507.771,11.879 519.63,0.588 532.991,0.588 L532.996,0.588 C535.757,0.588 537.996,2.827 537.996,5.588 L537.996,25.812 C537.996,28.574 535.757,30.812 532.996,30.812 Z" />
</svg>
